<svg width="24" height="24" viewBox="0 0 24 24" fill="none" xmlns="http://www.w3.org/2000/svg">
<path d="M9.5 4C10.7436 3.99997 11.961 4.35667 13.0079 5.02777C14.0549 5.69886 14.8873 6.65619 15.4065 7.78618C15.9257 8.91616 16.1099 10.1714 15.9371 11.4029C15.7644 12.6344 15.242 13.7905 14.432 14.734L20.076 20.378L19.369 21.085L13.724 15.44C12.9279 16.1208 11.979 16.5991 10.9582 16.8342C9.93735 17.0693 8.87484 17.0542 7.86113 16.7901C6.84742 16.5261 5.91253 16.021 5.13611 15.3178C4.35968 14.6146 3.76471 13.7341 3.40187 12.7514C3.03903 11.7687 2.91907 10.7129 3.05221 9.67387C3.18535 8.63483 3.56764 7.64336 4.16652 6.7839C4.76541 5.92444 5.56314 5.22246 6.49178 4.73774C7.42042 4.25302 8.45246 3.99992 9.5 4V4ZM9.5 5C8.04131 5 6.64236 5.57946 5.61091 6.61091C4.57946 7.64236 4 9.04131 4 10.5C4 11.9587 4.57946 13.3576 5.61091 14.3891C6.64236 15.4205 8.04131 16 9.5 16C10.9587 16 12.3576 15.4205 13.3891 14.3891C14.4205 13.3576 15 11.9587 15 10.5C15 9.04131 14.4205 7.64236 13.3891 6.61091C12.3576 5.57946 10.9587 5 9.5 5Z" fill="#111111"/>
</svg>
