<svg width="24" height="24" viewBox="0 0 24 24" fill="none" xmlns="http://www.w3.org/2000/svg">
<path d="M7 18C8.11 18 9 18.89 9 20C9 20.5304 8.78929 21.0391 8.41421 21.4142C8.03914 21.7893 7.53043 22 7 22C6.46957 22 5.96086 21.7893 5.58579 21.4142C5.21071 21.0391 5 20.5304 5 20C5 19.4696 5.21071 18.9609 5.58579 18.5858C5.96086 18.2107 6.46957 18 7 18ZM23 2V4H21L17.4 11.59L18.76 14.04C18.91 14.32 19 14.65 19 15C19 15.5304 18.7893 16.0391 18.4142 16.4142C18.0391 16.7893 17.5304 17 17 17H5V15H16.58C16.6463 15 16.7099 14.9737 16.7568 14.9268C16.8037 14.8799 16.83 14.8163 16.83 14.75C16.83 14.7 16.82 14.66 16.8 14.63L15.9 13H8.45C7.7 13 7.04 12.58 6.7 11.97L3.12 5.5C3.05 5.34 3 5.17 3 5C3 4.73478 3.10536 4.48043 3.29289 4.29289C3.48043 4.10536 3.73478 4 4 4H18.79L19.73 2H23ZM17 18C18.11 18 19 18.89 19 20C19 20.5304 18.7893 21.0391 18.4142 21.4142C18.0391 21.7893 17.5304 22 17 22C16.4696 22 15.9609 21.7893 15.5858 21.4142C15.2107 21.0391 15 20.5304 15 20C15 19.4696 15.2107 18.9609 15.5858 18.5858C15.9609 18.2107 16.4696 18 17 18Z" fill="#111111"/>
</svg>
