<svg width="601" height="71" viewBox="0 0 601 71" fill="none" xmlns="http://www.w3.org/2000/svg">
<path d="M16.5812 14.448C16.5812 12.9547 16.4959 11.76 16.3252 10.864C16.1972 9.92533 15.8986 9.2 15.4292 8.688C15.0026 8.13333 14.3626 7.77067 13.5092 7.6C12.6559 7.38667 11.5466 7.23733 10.1812 7.152V4.72H29.6372V7.152C28.2719 7.19467 27.1626 7.32267 26.3092 7.536C25.4986 7.74933 24.8586 8.13333 24.3892 8.688C23.9626 9.24266 23.6639 10.0107 23.4932 10.992C23.3652 11.9733 23.3012 13.2747 23.3012 14.896V54.128C23.3012 59.504 22.1706 63.6 19.9092 66.416C17.6479 69.232 14.3412 70.64 9.98924 70.64C7.04524 70.64 4.69857 70.064 2.94924 68.912C1.15724 67.8027 0.261239 66.3093 0.261239 64.432C0.261239 63.3227 0.559905 62.4693 1.15724 61.872C1.71191 61.3173 2.50124 61.04 3.52524 61.04C4.33591 61.04 4.99724 61.232 5.50924 61.616C5.97857 62.0427 6.53324 62.8533 7.17324 64.048C7.89857 65.4133 8.51724 66.3307 9.02924 66.8C9.58391 67.312 10.2879 67.568 11.1412 67.568C12.8906 67.568 14.2346 66.6293 15.1732 64.752C16.1119 62.8747 16.5812 60.208 16.5812 56.752V14.448ZM51.0487 26.928C53.3527 26.928 55.2727 26.8 56.8087 26.544C58.3874 26.2453 59.6247 25.7973 60.5207 25.2C61.4594 24.6027 62.1207 23.8347 62.5047 22.896C62.9314 21.9573 63.1447 20.848 63.1447 19.568H65.3847V37.04H63.1447C63.1447 35.76 62.9527 34.6507 62.5687 33.712C62.2274 32.7733 61.5874 32.0053 60.6487 31.408C59.7527 30.768 58.5154 30.2987 56.9367 30C55.4007 29.6587 53.4381 29.488 51.0487 29.488V43.952C51.0487 45.36 51.2194 46.5333 51.5607 47.472C51.9021 48.368 52.4781 49.1147 53.2887 49.712C54.1421 50.2667 55.2514 50.672 56.6167 50.928C57.9821 51.1413 59.6674 51.248 61.6727 51.248C63.9341 51.248 65.8541 51.0987 67.4327 50.8C69.0114 50.4587 70.3341 49.904 71.4007 49.136C72.4674 48.368 73.3207 47.3653 73.9607 46.128C74.6007 44.848 75.1341 43.2693 75.5607 41.392H77.9927L77.0327 54H37.2887V51.568C38.7821 51.5253 39.9767 51.3973 40.8727 51.184C41.8114 50.9707 42.5367 50.608 43.0487 50.096C43.5607 49.584 43.9021 48.8587 44.0727 47.92C44.2434 46.9813 44.3287 45.7653 44.3287 44.272V14.448C44.3287 12.9547 44.2434 11.76 44.0727 10.864C43.9447 9.92533 43.6461 9.2 43.1767 8.688C42.7501 8.13333 42.1101 7.77067 41.2567 7.6C40.4034 7.38667 39.2941 7.23733 37.9287 7.152V4.72H74.9207L75.4967 15.984H73.2567C73.0007 14.2773 72.5741 12.8907 71.9767 11.824C71.4221 10.7147 70.6327 9.84 69.6087 9.2C68.6274 8.56 67.3687 8.112 65.8327 7.856C64.2967 7.6 62.4407 7.472 60.2647 7.472H52.1367C51.4114 7.472 51.0487 7.83466 51.0487 8.56V26.928ZM99.4062 43.824C99.4062 45.4453 99.4916 46.768 99.6622 47.792C99.8756 48.7733 100.302 49.5413 100.942 50.096C101.582 50.608 102.478 50.9707 103.63 51.184C104.825 51.3973 106.382 51.5253 108.302 51.568V54H85.6462V51.568C87.1396 51.5253 88.3342 51.3973 89.2302 51.184C90.1689 50.9707 90.8942 50.608 91.4062 50.096C91.9182 49.584 92.2596 48.8587 92.4302 47.92C92.6009 46.9813 92.6862 45.7653 92.6862 44.272V14.448C92.6862 12.9547 92.6009 11.76 92.4302 10.864C92.3022 9.92533 92.0036 9.2 91.5342 8.688C91.1076 8.13333 90.4676 7.77067 89.6142 7.6C88.7609 7.38667 87.6516 7.23733 86.2862 7.152V4.72H123.278L123.982 16.944H121.742C121.486 15.1093 121.081 13.616 120.526 12.464C119.972 11.2693 119.182 10.3307 118.158 9.648C117.177 8.96533 115.918 8.496 114.382 8.24C112.846 7.94133 110.926 7.792 108.622 7.792H100.494C99.7689 7.792 99.4062 8.15466 99.4062 8.88V28.208C101.454 28.208 103.204 28.1013 104.654 27.888C106.148 27.632 107.364 27.2053 108.302 26.608C109.284 26.0107 110.03 25.2 110.542 24.176C111.054 23.152 111.374 21.8293 111.502 20.208H113.742V38.96H111.502C111.289 37.3387 110.948 35.9947 110.478 34.928C110.009 33.8613 109.305 33.0293 108.366 32.432C107.47 31.8347 106.297 31.408 104.846 31.152C103.396 30.896 101.582 30.768 99.4062 30.768V43.824ZM144.201 43.824C144.201 45.4453 144.287 46.768 144.457 47.792C144.671 48.7733 145.097 49.5413 145.737 50.096C146.377 50.608 147.273 50.9707 148.425 51.184C149.62 51.3973 151.177 51.5253 153.097 51.568V54H130.441V51.568C131.935 51.5253 133.129 51.3973 134.025 51.184C134.964 50.9707 135.689 50.608 136.201 50.096C136.713 49.584 137.055 48.8587 137.225 47.92C137.396 46.9813 137.481 45.7653 137.481 44.272V14.448C137.481 12.9547 137.396 11.76 137.225 10.864C137.097 9.92533 136.799 9.2 136.329 8.688C135.903 8.13333 135.263 7.77067 134.409 7.6C133.556 7.38667 132.447 7.23733 131.081 7.152V4.72H168.073L168.777 16.944H166.537C166.281 15.1093 165.876 13.616 165.321 12.464C164.767 11.2693 163.977 10.3307 162.953 9.648C161.972 8.96533 160.713 8.496 159.177 8.24C157.641 7.94133 155.721 7.792 153.417 7.792H145.289C144.564 7.792 144.201 8.15466 144.201 8.88V28.208C146.249 28.208 147.999 28.1013 149.449 27.888C150.943 27.632 152.159 27.2053 153.097 26.608C154.079 26.0107 154.825 25.2 155.337 24.176C155.849 23.152 156.169 21.8293 156.297 20.208H158.537V38.96H156.297C156.084 37.3387 155.743 35.9947 155.273 34.928C154.804 33.8613 154.1 33.0293 153.161 32.432C152.265 31.8347 151.092 31.408 149.641 31.152C148.191 30.896 146.377 30.768 144.201 30.768V43.824ZM214.468 17.072C214.468 20.4853 213.444 23.3227 211.396 25.584C209.348 27.8453 206.084 29.36 201.604 30.128L215.748 47.152C216.9 48.56 218.159 49.584 219.524 50.224C220.932 50.8213 222.596 51.2693 224.516 51.568V54H212.164L196.484 33.904C195.93 33.1787 195.396 32.6027 194.884 32.176C194.415 31.7493 193.903 31.4293 193.348 31.216C192.836 30.96 192.218 30.8107 191.492 30.768C190.81 30.6827 189.978 30.64 188.996 30.64V43.952C188.996 45.5307 189.082 46.832 189.252 47.856C189.466 48.8373 189.871 49.6053 190.468 50.16C191.108 50.7147 192.004 51.0987 193.156 51.312C194.351 51.4827 195.908 51.568 197.828 51.568V54H175.236V51.568C176.73 51.5253 177.924 51.3973 178.82 51.184C179.759 50.9707 180.484 50.608 180.996 50.096C181.508 49.584 181.85 48.8587 182.02 47.92C182.191 46.9813 182.276 45.7653 182.276 44.272V14.448C182.276 12.9547 182.191 11.76 182.02 10.864C181.892 9.92533 181.594 9.2 181.124 8.688C180.698 8.13333 180.058 7.77067 179.204 7.6C178.351 7.38667 177.242 7.23733 175.876 7.152V4.72H195.972C201.86 4.72 206.404 5.808 209.604 7.984C212.847 10.16 214.468 13.1893 214.468 17.072ZM188.996 27.44H193.54C197.807 27.44 200.964 26.672 203.012 25.136C205.103 23.5573 206.148 20.976 206.148 17.392C206.148 13.936 205.316 11.4613 203.652 9.968C202.031 8.47466 199.471 7.728 195.972 7.728H190.084C189.359 7.728 188.996 8.09066 188.996 8.816V27.44ZM241.354 26.928C243.658 26.928 245.578 26.8 247.114 26.544C248.692 26.2453 249.93 25.7973 250.826 25.2C251.764 24.6027 252.426 23.8347 252.81 22.896C253.236 21.9573 253.45 20.848 253.45 19.568H255.69V37.04H253.45C253.45 35.76 253.258 34.6507 252.874 33.712C252.532 32.7733 251.892 32.0053 250.954 31.408C250.058 30.768 248.82 30.2987 247.242 30C245.706 29.6587 243.743 29.488 241.354 29.488V43.952C241.354 45.36 241.524 46.5333 241.866 47.472C242.207 48.368 242.783 49.1147 243.594 49.712C244.447 50.2667 245.556 50.672 246.922 50.928C248.287 51.1413 249.972 51.248 251.978 51.248C254.239 51.248 256.159 51.0987 257.738 50.8C259.316 50.4587 260.639 49.904 261.706 49.136C262.772 48.368 263.626 47.3653 264.266 46.128C264.906 44.848 265.439 43.2693 265.866 41.392H268.298L267.338 54H227.594V51.568C229.087 51.5253 230.282 51.3973 231.178 51.184C232.116 50.9707 232.842 50.608 233.354 50.096C233.866 49.584 234.207 48.8587 234.378 47.92C234.548 46.9813 234.634 45.7653 234.634 44.272V14.448C234.634 12.9547 234.548 11.76 234.378 10.864C234.25 9.92533 233.951 9.2 233.482 8.688C233.055 8.13333 232.415 7.77067 231.562 7.6C230.708 7.38667 229.599 7.23733 228.234 7.152V4.72H265.226L265.802 15.984H263.562C263.306 14.2773 262.879 12.8907 262.282 11.824C261.727 10.7147 260.938 9.84 259.914 9.2C258.932 8.56 257.674 8.112 256.138 7.856C254.602 7.6 252.746 7.472 250.57 7.472H242.442C241.716 7.472 241.354 7.83466 241.354 8.56V26.928ZM280.367 12.656C279.727 11.5467 279.13 10.6507 278.575 9.968C278.021 9.24266 277.445 8.66666 276.847 8.24C276.293 7.81333 275.695 7.536 275.055 7.408C274.415 7.23733 273.647 7.152 272.751 7.152V4.72H292.911V7.152C290.778 7.152 289.263 7.32266 288.367 7.664C287.514 7.96267 287.087 8.51733 287.087 9.328C287.087 10.224 287.578 11.504 288.559 13.168L298.479 30.128H298.735L305.967 17.968C307.333 15.664 308.293 13.8507 308.847 12.528C309.445 11.2053 309.743 10.1387 309.743 9.328C309.743 8.51733 309.423 7.96267 308.783 7.664C308.186 7.32266 307.119 7.152 305.583 7.152V4.72H320.239V7.152C319.343 7.152 318.533 7.28 317.807 7.536C317.125 7.792 316.399 8.304 315.631 9.072C314.863 9.84 314.01 10.9067 313.071 12.272C312.175 13.6373 311.066 15.4293 309.743 17.648L299.887 34.288V41.904C299.887 43.9947 299.951 45.68 300.079 46.96C300.25 48.1973 300.57 49.1573 301.039 49.84C301.551 50.5227 302.255 50.992 303.151 51.248C304.09 51.4613 305.327 51.568 306.863 51.568V54H286.127V51.568C287.663 51.568 288.879 51.4613 289.775 51.248C290.714 50.992 291.418 50.544 291.887 49.904C292.399 49.2213 292.741 48.2827 292.911 47.088C293.082 45.8933 293.167 44.3147 293.167 42.352V34.544L280.367 12.656ZM326.025 16.496C327.987 15.0027 329.374 13.5947 330.185 12.272C331.038 10.9067 331.465 9.41333 331.465 7.792C330.91 8.13333 330.27 8.304 329.545 8.304C328.563 8.304 327.753 7.984 327.113 7.344C326.515 6.66133 326.217 5.808 326.217 4.784C326.217 3.632 326.601 2.69333 327.369 1.968C328.179 1.24266 329.246 0.879997 330.569 0.879997C333.598 0.879997 335.113 2.88533 335.113 6.896C335.113 8.00533 334.985 9.008 334.729 9.904C334.473 10.8 334.046 11.696 333.449 12.592C332.894 13.4453 332.126 14.3413 331.145 15.28C330.163 16.176 328.947 17.1573 327.497 18.224L326.025 16.496ZM343.811 38.96H346.179C346.477 40.88 347.032 42.608 347.843 44.144C348.696 45.68 349.741 46.9813 350.979 48.048C352.259 49.1147 353.709 49.9467 355.331 50.544C356.995 51.0987 358.787 51.376 360.707 51.376C363.864 51.376 366.36 50.6293 368.195 49.136C370.029 47.6427 370.947 45.616 370.947 43.056C370.947 41.9893 370.755 41.008 370.371 40.112C370.029 39.216 369.432 38.3627 368.579 37.552C367.725 36.6987 366.573 35.8667 365.123 35.056C363.715 34.2453 361.923 33.3707 359.747 32.432C357.101 31.28 354.883 30.1707 353.091 29.104C351.299 28.0373 349.869 26.928 348.803 25.776C347.736 24.624 346.968 23.408 346.499 22.128C346.072 20.8053 345.859 19.312 345.859 17.648C345.859 15.6853 346.2 13.872 346.883 12.208C347.608 10.544 348.611 9.11466 349.891 7.92C351.171 6.68267 352.685 5.744 354.435 5.104C356.184 4.42133 358.104 4.08 360.195 4.08C362.072 4.08 363.821 4.37866 365.443 4.976C367.064 5.57333 368.707 6.53333 370.371 7.856L372.035 4.976H373.507L374.211 17.712H371.843C370.819 14.2133 369.325 11.6107 367.363 9.904C365.443 8.19733 363.117 7.344 360.387 7.344C357.784 7.344 355.715 7.984 354.179 9.264C352.643 10.544 351.875 12.272 351.875 14.448C351.875 15.472 352.045 16.4107 352.387 17.264C352.728 18.0747 353.283 18.864 354.051 19.632C354.819 20.3573 355.821 21.104 357.059 21.872C358.296 22.5973 359.832 23.3653 361.667 24.176C364.824 25.584 367.448 26.9067 369.539 28.144C371.629 29.3387 373.293 30.5547 374.531 31.792C375.768 32.9867 376.643 34.2667 377.155 35.632C377.667 36.9547 377.923 38.448 377.923 40.112C377.923 42.2453 377.496 44.208 376.643 46C375.789 47.792 374.595 49.328 373.059 50.608C371.523 51.888 369.688 52.8907 367.555 53.616C365.421 54.2987 363.075 54.64 360.515 54.64C358.083 54.64 355.885 54.2987 353.923 53.616C352.003 52.9333 350.04 51.7813 348.035 50.16L346.243 53.296H344.771L343.811 38.96ZM451.868 16.944H449.244C449.116 15.1093 448.817 13.5733 448.348 12.336C447.878 11.0987 447.196 10.1387 446.3 9.456C445.446 8.73066 444.358 8.21866 443.036 7.92C441.713 7.62133 440.134 7.472 438.3 7.472C436.721 7.472 435.441 7.51466 434.46 7.6C433.521 7.64266 432.796 7.74933 432.284 7.92C431.772 8.09067 431.43 8.304 431.26 8.56C431.132 8.77333 431.068 9.072 431.068 9.456V43.696C431.068 45.0613 431.153 46.2347 431.324 47.216C431.537 48.1973 431.921 49.008 432.476 49.648C433.073 50.2453 433.905 50.7147 434.972 51.056C436.081 51.3547 437.532 51.5253 439.324 51.568V54H415.132V51.568C416.924 51.5253 418.374 51.3547 419.484 51.056C420.593 50.7147 421.425 50.2453 421.98 49.648C422.577 49.008 422.961 48.1973 423.132 47.216C423.345 46.2347 423.452 45.0613 423.452 43.696V9.456C423.452 9.072 423.366 8.77333 423.196 8.56C423.068 8.304 422.769 8.09067 422.3 7.92C421.873 7.74933 421.254 7.64266 420.444 7.6C419.633 7.51466 418.545 7.472 417.18 7.472C415.516 7.472 413.958 7.536 412.508 7.664C411.1 7.792 409.862 8.176 408.796 8.816C407.772 9.41333 406.94 10.352 406.3 11.632C405.66 12.912 405.318 14.6827 405.276 16.944H402.908V4.72H451.228L451.868 16.944ZM484.568 4.08C488.323 4.08 491.822 4.74133 495.064 6.064C498.307 7.38666 501.123 9.2 503.512 11.504C505.902 13.808 507.779 16.5173 509.144 19.632C510.51 22.7467 511.192 26.1173 511.192 29.744C511.192 33.2 510.488 36.4427 509.08 39.472C507.715 42.5013 505.838 45.1467 503.448 47.408C501.059 49.6267 498.243 51.3973 495 52.72C491.758 54 488.28 54.64 484.568 54.64C480.856 54.64 477.379 54 474.136 52.72C470.894 51.3973 468.078 49.6267 465.688 47.408C463.299 45.1467 461.4 42.5013 459.992 39.472C458.627 36.4427 457.944 33.2 457.944 29.744C457.944 26.1173 458.627 22.7467 459.992 19.632C461.358 16.5173 463.235 13.808 465.624 11.504C468.014 9.2 470.83 7.38666 474.072 6.064C477.315 4.74133 480.814 4.08 484.568 4.08ZM484.568 51.12C487.384 51.12 489.902 50.6293 492.12 49.648C494.382 48.6667 496.302 47.2587 497.88 45.424C499.502 43.5893 500.739 41.3707 501.592 38.768C502.446 36.1227 502.872 33.1787 502.872 29.936C502.872 26.5227 502.446 23.4507 501.592 20.72C500.739 17.9467 499.523 15.6 497.944 13.68C496.366 11.7173 494.446 10.224 492.184 9.2C489.923 8.13333 487.384 7.6 484.568 7.6C481.752 7.6 479.214 8.13333 476.952 9.2C474.691 10.224 472.771 11.7173 471.192 13.68C469.614 15.6 468.398 17.9467 467.544 20.72C466.691 23.4507 466.264 26.5227 466.264 29.936C466.264 33.1787 466.691 36.1227 467.544 38.768C468.398 41.3707 469.614 43.5893 471.192 45.424C472.771 47.2587 474.691 48.6667 476.952 49.648C479.214 50.6293 481.752 51.12 484.568 51.12ZM521.512 12.656C520.872 11.5467 520.275 10.6507 519.72 9.968C519.166 9.24266 518.59 8.66666 517.992 8.24C517.438 7.81333 516.84 7.536 516.2 7.408C515.56 7.23733 514.792 7.152 513.896 7.152V4.72H534.056V7.152C531.923 7.152 530.408 7.32266 529.512 7.664C528.659 7.96267 528.232 8.51733 528.232 9.328C528.232 10.224 528.723 11.504 529.704 13.168L539.624 30.128H539.88L547.112 17.968C548.478 15.664 549.438 13.8507 549.992 12.528C550.59 11.2053 550.888 10.1387 550.888 9.328C550.888 8.51733 550.568 7.96267 549.928 7.664C549.331 7.32266 548.264 7.152 546.728 7.152V4.72H561.384V7.152C560.488 7.152 559.678 7.28 558.952 7.536C558.27 7.792 557.544 8.304 556.776 9.072C556.008 9.84 555.155 10.9067 554.216 12.272C553.32 13.6373 552.211 15.4293 550.888 17.648L541.032 34.288V41.904C541.032 43.9947 541.096 45.68 541.224 46.96C541.395 48.1973 541.715 49.1573 542.184 49.84C542.696 50.5227 543.4 50.992 544.296 51.248C545.235 51.4613 546.472 51.568 548.008 51.568V54H527.272V51.568C528.808 51.568 530.024 51.4613 530.92 51.248C531.859 50.992 532.563 50.544 533.032 49.904C533.544 49.2213 533.886 48.2827 534.056 47.088C534.227 45.8933 534.312 44.3147 534.312 42.352V34.544L521.512 12.656ZM566.161 38.96H568.529C568.827 40.88 569.382 42.608 570.193 44.144C571.046 45.68 572.091 46.9813 573.329 48.048C574.609 49.1147 576.059 49.9467 577.681 50.544C579.345 51.0987 581.137 51.376 583.057 51.376C586.214 51.376 588.71 50.6293 590.545 49.136C592.379 47.6427 593.297 45.616 593.297 43.056C593.297 41.9893 593.105 41.008 592.721 40.112C592.379 39.216 591.782 38.3627 590.929 37.552C590.075 36.6987 588.923 35.8667 587.473 35.056C586.065 34.2453 584.273 33.3707 582.097 32.432C579.451 31.28 577.233 30.1707 575.441 29.104C573.649 28.0373 572.219 26.928 571.153 25.776C570.086 24.624 569.318 23.408 568.849 22.128C568.422 20.8053 568.209 19.312 568.209 17.648C568.209 15.6853 568.55 13.872 569.233 12.208C569.958 10.544 570.961 9.11466 572.241 7.92C573.521 6.68267 575.035 5.744 576.785 5.104C578.534 4.42133 580.454 4.08 582.545 4.08C584.422 4.08 586.171 4.37866 587.793 4.976C589.414 5.57333 591.057 6.53333 592.721 7.856L594.385 4.976H595.857L596.561 17.712H594.193C593.169 14.2133 591.675 11.6107 589.713 9.904C587.793 8.19733 585.467 7.344 582.737 7.344C580.134 7.344 578.065 7.984 576.529 9.264C574.993 10.544 574.225 12.272 574.225 14.448C574.225 15.472 574.395 16.4107 574.737 17.264C575.078 18.0747 575.633 18.864 576.401 19.632C577.169 20.3573 578.171 21.104 579.409 21.872C580.646 22.5973 582.182 23.3653 584.017 24.176C587.174 25.584 589.798 26.9067 591.889 28.144C593.979 29.3387 595.643 30.5547 596.881 31.792C598.118 32.9867 598.993 34.2667 599.505 35.632C600.017 36.9547 600.273 38.448 600.273 40.112C600.273 42.2453 599.846 44.208 598.993 46C598.139 47.792 596.945 49.328 595.409 50.608C593.873 51.888 592.038 52.8907 589.905 53.616C587.771 54.2987 585.425 54.64 582.865 54.64C580.433 54.64 578.235 54.2987 576.273 53.616C574.353 52.9333 572.39 51.7813 570.385 50.16L568.593 53.296H567.121L566.161 38.96Z" fill="black"/>
</svg>
