<svg width="24" height="24" viewBox="0 0 24 24" fill="none" xmlns="http://www.w3.org/2000/svg">
<path d="M5.077 9.457C5.077 8.679 5.213 7.944 5.481 7.258C5.73705 6.5917 6.11748 5.98017 6.602 5.456C7.08553 4.93871 7.63887 4.4914 8.246 4.127C8.86891 3.75016 9.5433 3.46585 10.248 3.283C10.9612 3.09572 11.6956 3.00128 12.433 3.002C13.572 3.002 14.632 3.243 15.615 3.723C16.5852 4.19425 17.4109 4.91745 18.006 5.817C18.62 6.732 18.925 7.767 18.925 8.921C18.925 9.613 18.857 10.29 18.718 10.952C18.5815 11.6136 18.3646 12.2561 18.072 12.865C17.7931 13.4545 17.4285 13.9994 16.99 14.482C16.5493 14.957 16.0155 15.3362 15.422 15.596C14.7776 15.8784 14.0805 16.0206 13.377 16.013C12.888 16.013 12.4 15.898 11.918 15.667C11.436 15.437 11.09 15.121 10.882 14.716C10.809 14.997 10.709 15.403 10.576 15.934C10.448 16.464 10.362 16.806 10.324 16.961C10.284 17.115 10.21 17.372 10.102 17.728C10.0288 17.9913 9.9348 18.2485 9.821 18.497L9.477 19.171C9.32823 19.4602 9.16192 19.7401 8.979 20.009C8.798 20.271 8.574 20.584 8.307 20.944L8.158 20.997L8.059 20.889C7.952 19.756 7.897 19.078 7.897 18.854C7.897 18.191 7.976 17.447 8.132 16.621C8.285 15.796 8.527 14.759 8.852 13.512C9.177 12.266 9.363 11.533 9.413 11.316C9.184 10.849 9.068 10.239 9.068 9.489C9.068 8.89 9.255 8.329 9.63 7.801C10.006 7.275 10.481 7.012 11.057 7.012C11.498 7.012 11.84 7.158 12.085 7.451C12.331 7.743 12.451 8.111 12.451 8.56C12.451 9.036 12.293 9.725 11.975 10.626C11.657 11.528 11.499 12.201 11.499 12.648C11.499 13.101 11.661 13.48 11.985 13.777C12.3047 14.0742 12.7276 14.2352 13.164 14.226C13.56 14.226 13.927 14.136 14.268 13.955C14.6037 13.7793 14.8942 13.5285 15.117 13.222C15.6022 12.5563 15.9481 11.7995 16.134 10.997C16.23 10.575 16.304 10.174 16.35 9.797C16.399 9.418 16.42 9.06 16.42 8.72C16.42 7.473 16.024 6.501 15.237 5.805C14.446 5.109 13.416 4.763 12.149 4.763C10.708 4.763 9.503 5.229 8.538 6.164C7.572 7.096 7.086 8.281 7.086 9.718C7.086 10.035 7.134 10.341 7.225 10.637C7.314 10.932 7.411 11.167 7.516 11.341C7.62 11.512 7.718 11.679 7.807 11.833C7.897 11.987 7.944 12.097 7.944 12.163C7.944 12.365 7.891 12.628 7.784 12.953C7.673 13.278 7.542 13.44 7.384 13.44C7.369 13.44 7.307 13.429 7.199 13.406C6.82496 13.2943 6.48717 13.0856 6.22 12.801C5.93644 12.5061 5.71265 12.159 5.561 11.779C5.40978 11.4004 5.29199 11.0092 5.209 10.61C5.11933 10.2323 5.07502 9.84522 5.077 9.457V9.457Z" fill="#111111"/>
</svg>
