<svg width="24" height="24" viewBox="0 0 24 24" fill="none" xmlns="http://www.w3.org/2000/svg">
<path d="M18.938 16.125C18.3939 16.1245 17.8571 16.249 17.3688 16.489C16.8805 16.729 16.4539 17.078 16.122 17.509L16.116 17.517L8.432 13.156C8.69349 12.3985 8.69103 11.5749 8.425 10.819L8.433 10.844L16.117 6.48301C16.6545 7.17945 17.4309 7.65218 18.2964 7.81005C19.1619 7.96791 20.0551 7.79972 20.8039 7.33791C21.5527 6.87611 22.104 6.15339 22.3515 5.30915C22.5989 4.46491 22.525 3.55894 22.144 2.76598C21.7629 1.97302 21.1018 1.34922 20.288 1.0149C19.4743 0.680583 18.5656 0.659417 17.7371 0.955488C16.9087 1.25156 16.2192 1.84389 15.8017 2.61826C15.3841 3.39262 15.2681 4.29416 15.476 5.14901L15.471 5.12501L7.656 9.56001C7.16699 9.03983 6.53299 8.67855 5.83619 8.52302C5.1394 8.36749 4.41195 8.42487 3.74815 8.68773C3.08436 8.9506 2.51485 9.40681 2.11345 9.99723C1.71205 10.5877 1.49729 11.285 1.49699 11.999C1.4967 12.7129 1.7109 13.4105 2.11181 14.0012C2.51273 14.592 3.08187 15.0487 3.74544 15.3121C4.40902 15.5755 5.13642 15.6335 5.83334 15.4785C6.53027 15.3235 7.16456 14.9628 7.654 14.443L7.656 14.441L15.471 18.876C15.3024 19.596 15.3621 20.3505 15.6417 21.0351C15.9214 21.7196 16.4071 22.3001 17.0315 22.6961C17.656 23.0921 18.3882 23.284 19.1266 23.2451C19.865 23.2062 20.573 22.9384 21.1524 22.479C21.7318 22.0196 22.1538 21.3912 22.36 20.6811C22.5661 19.971 22.5462 19.2144 22.3029 18.5161C22.0596 17.8178 21.6051 17.2126 21.0023 16.7843C20.3995 16.356 19.6784 16.126 18.939 16.126L18.938 16.125ZM18.938 2.25001C19.346 2.25001 19.7449 2.371 20.0841 2.59769C20.4234 2.82437 20.6878 3.14657 20.844 3.52353C21.0001 3.90049 21.041 4.3153 20.9614 4.71548C20.8818 5.11566 20.6853 5.48325 20.3968 5.77177C20.1082 6.06028 19.7407 6.25677 19.3405 6.33637C18.9403 6.41597 18.5255 6.37511 18.1485 6.21897C17.7716 6.06283 17.4494 5.79841 17.2227 5.45915C16.996 5.11989 16.875 4.72103 16.875 4.31301C16.8755 3.7662 17.0929 3.24193 17.4795 2.85518C17.866 2.46844 18.3902 2.2508 18.937 2.25001H18.938ZM5.063 14.063C4.65498 14.063 4.25612 13.942 3.91686 13.7153C3.5776 13.4886 3.31318 13.1664 3.15703 12.7895C3.00089 12.4125 2.96004 11.9977 3.03964 11.5975C3.11924 11.1974 3.31572 10.8298 3.60424 10.5412C3.89275 10.2527 4.26034 10.0562 4.66053 9.97665C5.06071 9.89705 5.47551 9.9379 5.85247 10.094C6.22944 10.2502 6.55163 10.5146 6.77832 10.8539C7.005 11.1931 7.126 11.592 7.126 12C7.12547 12.5468 6.90808 13.0711 6.52153 13.4578C6.13497 13.8446 5.6108 14.0622 5.064 14.063H5.063ZM18.938 21.75C18.53 21.75 18.1311 21.629 17.7919 21.4023C17.4526 21.1756 17.1882 20.8534 17.032 20.4765C16.8759 20.0995 16.835 19.6847 16.9146 19.2845C16.9942 18.8844 17.1907 18.5168 17.4792 18.2282C17.7678 17.9397 18.1353 17.7432 18.5355 17.6636C18.9357 17.584 19.3505 17.6249 19.7275 17.781C20.1044 17.9372 20.4266 18.2016 20.6533 18.5409C20.88 18.8801 21.001 19.279 21.001 19.687C21.0005 20.2338 20.7831 20.7581 20.3965 21.1448C20.01 21.5316 19.4858 21.7492 18.939 21.75H18.938Z" fill="#111111"/>
</svg>
